#!OML:ASF F:\VICON\USERDATA\INSTALL\rory3\rory3.ASF
:FULLY-SPECIFIED
:DEGREES
740
root 0.61896 15.7529 -4.09669 -18.3228 -42.6915 4.02151
lowerback 21.7554 1.74754 -6.1307
upperback 11.2283 0.718775 0.270051
thorax 0.0490535 -0.0898369 3.6143
lowerneck -19.884 -2.00276 -11.3773
upperneck 32.4267 0.223811 2.01985
head 14.5684 -1.14908 2.80007
rclavicle 2.01021e-014 -7.55382e-015
rhumerus -18.5792 12.0213 -85.7225
rradius 81.8035
rwrist 37.1894
rhand -28.2466 9.89894
rfingers 7.12502
rthumb -1.6241 -20.0746
lclavicle 2.01021e-014 -7.55382e-015
lhumerus -19.7213 -9.82177 88.4312
lradius 69.8542
lwrist -21.3941
lhand -14.4624 18.932
lfingers 7.12502
lthumb 11.6833 48.5863
rfemur -79.4915 -34.786 32.2527
rtibia 137.873
rfoot 2.91135 0.350316
rtoes -1.34847
lfemur -50.2182 40.7737 -14.6891
ltibia 116.818
lfoot 6.60712 -19.5098
ltoes -22.3867
741
root 0.617018 15.7527 -4.094 -18.3544 -42.6507 4.06683
lowerback 21.72 1.75298 -6.15487
upperback 11.2404 0.723667 0.24314
thorax 0.0797085 -0.0887027 3.59807
lowerneck -19.9039 -2.00706 -11.3266
upperneck 32.4587 0.226884 1.95021
head 14.5878 -1.15301 2.76377
rclavicle 1.35795e-014 1.59028e-014
rhumerus -18.4949 12.0193 -85.7284
rradius 81.6948
rwrist 37.1975
rhand -28.219 9.92538
rfingers 7.12502
rthumb -1.59738 -20.0484
lclavicle 1.35795e-014 1.59028e-014
lhumerus -19.6744 -9.87704 88.4003
lradius 69.8442
lwrist -21.3707
lhand -14.4283 18.913
lfingers 7.12502
lthumb 11.7161 48.5653
rfemur -79.4866 -34.8521 32.2124
rtibia 137.89
rfoot 2.8952 0.341623
rtoes -1.23612
lfemur -50.1916 40.7701 -14.7254
ltibia 116.814
lfoot 6.85181 -19.429
ltoes -22.198
742
root 0.616103 15.7524 -4.09334 -18.418 -42.6141 4.16573
lowerback 21.687 1.76919 -6.19711
upperback 11.2589 0.738075 0.189729
thorax 0.115624 -0.0832338 3.56156
lowerneck -20.0074 -2.00742 -11.2848
upperneck 32.5507 0.236329 1.92679
head 14.652 -1.1516 2.7509
rclavicle -9.11925e-014 2.83765e-014
rhumerus -18.4316 11.9789 -85.7624
rradius 81.6277
rwrist 37.2029
rhand -28.1886 9.83144
rfingers 7.12502
rthumb -1.56807 -20.1425
lclavicle -9.11925e-014 2.83765e-014
lhumerus -19.6161 -10.013 88.3543
lradius 69.8652
lwrist -21.1518
lhand -14.5465 18.9178
lfingers 7.12502
lthumb 11.6021 48.5766
rfemur -79.5159 -34.9236 32.1261
rtibia 137.918
rfoot 2.87796 0.361277
rtoes -0.735335
lfemur -50.1891 40.7571 -14.8234
ltibia 116.802
lfoot 6.64194 -19.5017
ltoes -22.2888
743
root 0.61629 15.7516 -4.09325 -18.375 -42.569 4.07657
lowerback 21.7328 1.75528 -6.13866
upperback 11.2592 0.727683 0.195022
thorax 0.0939369 -0.0854994 3.53619
lowerneck -20.1463 -2.01133 -11.3434
upperneck 32.6726 0.248676 2.00089
head 14.7373 -1.14911 2.79704
rclavicle 4.5472e-014 -1.81391e-014
rhumerus -18.4257 11.9488 -85.772
rradius 81.5921
rwrist 37.3215
rhand -28.2258 9.75817
rfingers 7.12502
rthumb -1.60404 -20.2155
lclavicle 4.5472e-014 -1.81391e-014
lhumerus -19.6198 -10.062 88.3706
lradius 69.8616
lwrist -21.004
lhand -14.7798 18.9355
lfingers 7.12502
lthumb 11.3771 48.6068
rfemur -79.5006 -34.9658 32.2198
rtibia 137.898
rfoot 2.82764 0.305243
rtoes -0.77164
lfemur -50.2126 40.713 -14.7609
ltibia 116.823
lfoot 7.07872 -19.3638
ltoes -21.8319
744
root 0.61704 15.7504 -4.0929 -18.2294 -42.5413 3.8645
lowerback 21.7789 1.70772 -6.00091
upperback 11.2314 0.69019 0.242752
thorax 0.0429593 -0.0971889 3.5173
lowerneck -20.1797 -2.01751 -11.4209
upperneck 32.7278 0.281465 1.97924
head 14.7692 -1.15116 2.80815
rclavicle -5.03671e-014 2.74323e-014
rhumerus -18.4777 12.0241 -85.7545
rradius 81.6111
rwrist 37.3729
rhand -28.2915 9.5811
rfingers 7.12502
rthumb -1.66747 -20.3921
lclavicle -5.03671e-014 2.74323e-014
lhumerus -19.6248 -9.78499 88.3612
lradius 69.8618
lwrist -21.5615
lhand -14.2335 18.6159
lfingers 7.12502
lthumb 11.9039 48.2575
rfemur -79.4923 -34.9436 32.4401
rtibia 137.866
rfoot 2.73252 0.14545
rtoes -1.06655
lfemur -50.2814 40.6758 -14.6115
ltibia 116.864
lfoot 6.54641 -19.6041
ltoes -22.4203
745
root 0.616376 15.7496 -4.09145 -18.2308 -42.5192 3.87028
lowerback 21.7679 1.70747 -6.01054
upperback 11.2247 0.689364 0.244313
thorax 0.0412083 -0.0975635 3.52466
lowerneck -20.222 -2.03435 -11.4389
upperneck 32.8155 0.305517 1.88047
head 14.8197 -1.16229 2.77592
rclavicle -7.02083e-014 1.26725e-014
rhumerus -18.5099 12.0478 -85.7318
rradius 81.6335
rwrist 37.3647
rhand -28.3398 9.55454
rfingers 7.12502
rthumb -1.71411 -20.4183
lclavicle -7.02083e-014 1.26725e-014
lhumerus -19.592 -9.59541 88.3456
lradius 69.852
lwrist -22.0562
lhand -13.6262 18.3053
lfingers 7.12502
lthumb 12.4895 47.9121
rfemur -79.497 -34.92 32.4548
rtibia 137.863
rfoot 2.62363 -0.0216107
rtoes -1.18901
lfemur -50.2741 40.6254 -14.6249
ltibia 116.867
lfoot 6.37822 -19.6043
ltoes -22.5851
746
root 0.615058 15.7468 -4.09055 -18.345 -42.5198 4.02338
lowerback 21.7502 1.75129 -6.13997
upperback 11.2239 0.72251 0.213666
thorax 0.0468023 -0.0856289 3.55812
lowerneck -20.2083 -2.05843 -11.4387
upperneck 32.8434 0.282827 1.83829
head 14.8325 -1.17949 2.75448
rclavicle 4.88638e-014 -1.54058e-014
rhumerus -18.5348 12.035 -85.7328
rradius 81.6351
rwrist 37.34
rhand -28.3915 9.63873
rfingers 7.12502
rthumb -1.76398 -20.3337
lclavicle 4.88638e-014 -1.54058e-014
lhumerus -19.6241 -9.88438 88.4519
lradius 69.8272
lwrist -21.3187
lhand -14.5458 18.8107
lfingers 7.12502
lthumb 11.6028 48.4695
rfemur -79.5145 -34.8539 32.3359
rtibia 137.9
rfoot 2.56453 -0.22417
rtoes -0.842171
lfemur -50.2196 40.6388 -14.7121
ltibia 116.867
lfoot 6.39531 -19.5693
ltoes -22.2538
747
root 0.614071 15.7433 -4.09093 -18.3624 -42.5245 4.00921
lowerback 21.7669 1.75663 -6.14716
upperback 11.2219 0.726545 0.209397
thorax 0.0361408 -0.0835194 3.55671
lowerneck -20.1915 -2.08687 -11.5098
upperneck 32.8626 0.242773 1.8993
head 14.841 -1.19773 2.7851
rclavicle -1.64743e-014 3.2551e-014
rhumerus -18.5714 12.0539 -85.7548
rradius 81.6468
rwrist 37.3108
rhand -28.3171 9.74866
rfingers 7.12502
rthumb -1.69219 -20.2244
lclavicle -1.64743e-014 3.2551e-014
lhumerus -19.5728 -9.58415 88.3415
lradius 69.7808
lwrist -22.1209
lhand -13.6018 18.2066
lfingers 7.12502
lthumb 12.5131 47.8119
rfemur -79.5012 -34.8174 32.3756
rtibia 137.916
rfoot 2.45817 -0.402071
rtoes -0.417589
lfemur -50.1926 40.6833 -14.661
ltibia 116.884
lfoot 6.37213 -19.6311
ltoes -22.2779
748
root 0.613624 15.7431 -4.08999 -18.3073 -42.5491 3.89529
lowerback 21.7619 1.72872 -6.07801
upperback 11.2303 0.703537 0.217533
thorax 0.0495575 -0.0932232 3.53113
lowerneck -20.1609 -2.08171 -11.4952
upperneck 32.8302 0.269574 1.81551
head 14.8184 -1.19521 2.75147
rclavicle 1.74993e-014 1.75676e-014
rhumerus -18.5573 12.0968 -85.7806
rradius 81.6071
rwrist 37.3162
rhand -28.2134 9.89284
rfingers 7.12502
rthumb -1.59202 -20.081
lclavicle 1.74993e-014 1.75676e-014
lhumerus -19.5959 -9.82457 88.3943
lradius 69.7975
lwrist -21.2556
lhand -14.7233 18.7993
lfingers 7.12502
lthumb 11.4316 48.4676
rfemur -79.4446 -34.7545 32.5557
rtibia 137.874
rfoot 2.30601 -0.565796
rtoes -1.21086
lfemur -50.145 40.7118 -14.5175
ltibia 116.89
lfoot 6.38077 -19.6638
ltoes -22.2627
